<svg xmlns="http://www.w3.org/2000/svg" width="152" height="35" viewBox="0 0 152 35">
  <path id="Union_5" data-name="Union 5" d="M0,17.5A17.338,17.338,0,0,1,4.852,5.458L4.908,5.4l8.508,14.541a4.929,4.929,0,0,0,6.7,1.766A4.846,4.846,0,0,0,21.9,15.06a4.929,4.929,0,0,0-6.7-1.766,4.867,4.867,0,0,0-1.317,1.111l-.056.067L7.305,3.327,7.349,3.3A17.682,17.682,0,0,1,35.311,17.5,17.656,17.656,0,0,1,0,17.5Zm3.79,0A13.866,13.866,0,1,0,17.657,3.756a13.852,13.852,0,0,0-5.144.985L15.15,9.249a8.741,8.741,0,0,1,10.027,3.928,8.587,8.587,0,0,1-3.16,11.779,8.739,8.739,0,0,1-11.881-3.132l-5.418-9.26A13.518,13.518,0,0,0,3.79,17.5Zm131.446,2.419a8.388,8.388,0,0,1,16.765,0,8.388,8.388,0,0,1-16.765,0Zm3.988,0a4.394,4.394,0,1,0,4.394-4.406A4.4,4.4,0,0,0,139.223,19.918Zm-22.48,0V7h3.941v6.637a7.186,7.186,0,0,1,4.818-1.8,8.03,8.03,0,0,1,7.958,8.083A8.12,8.12,0,0,1,125.32,28,8.351,8.351,0,0,1,116.743,19.915Zm3.941,0a4.395,4.395,0,1,0,4.395-4.4A4.406,4.406,0,0,0,120.684,19.915Zm-49.513,0a8.387,8.387,0,0,1,16.764,0,7.766,7.766,0,0,1-.108,1.306l-.008.05H75.372a4.653,4.653,0,0,0,7.775,1.566l.027-.03,3.832,1.338-.041.063A8.413,8.413,0,0,1,79.863,28C74.908,28,71.171,24.525,71.171,19.919ZM75.4,18.48h8.31a4.392,4.392,0,0,0-8.31,0ZM42.374,19.915V7h3.941v6.637a7.187,7.187,0,0,1,4.818-1.8,8.03,8.03,0,0,1,7.958,8.083A8.12,8.12,0,0,1,50.95,28,8.351,8.351,0,0,1,42.374,19.915Zm3.941,0a4.395,4.395,0,1,0,4.395-4.4A4.406,4.406,0,0,0,46.314,19.915ZM110.557,27.7V19.562c0-2.764-1.718-3.745-3.189-3.745-.539,0-3.231.175-3.231,3.628V27.7h-3.926V19.445c0-3.453-2.691-3.628-3.23-3.628-1.471,0-3.189.981-3.189,3.745V27.7H89.954V18.482a6.664,6.664,0,0,1,6.825-6.618,6.982,6.982,0,0,1,5.4,2.492,6.981,6.981,0,0,1,5.4-2.492,6.664,6.664,0,0,1,6.825,6.618V27.7Zm-49.267,0V17.331c0-3.2,2.028-5.193,5.293-5.193h3.811V15.89H67.663c-1.26,0-2.425.263-2.425,2.169V27.7Z" fill="#e43038"/>
</svg>
