<svg width="64" height="14" viewBox="0 0 64 14" fill="none" xmlns="http://www.w3.org/2000/svg">
<path id="Vector" d="M63.4955 13.75H53.0904V0.254558H63.4911C63.2378 0.687543 63.0066 1.14787 62.7977 1.63099H55.8372V2.17336H62.5799C62.4644 2.47418 62.3621 2.7841 62.2688 3.09859H55.8372V5.56888H61.8021C61.7576 6.02009 61.731 6.48043 61.731 6.94987H55.8417V7.49224H61.7399C61.7532 7.80217 61.771 8.1121 61.8021 8.41746H55.8417V10.9014H62.2777C62.4155 11.3754 62.5799 11.8312 62.7666 12.2779H55.8461V12.8202H63.0111C63.1622 13.1393 63.3267 13.4492 63.5 13.7455L63.4955 13.75ZM44.8631 10.906V0.254558H43.9608V10.906H43.4319V0.254558H42.0718V13.7455H51.628V10.9014H44.8631V10.906ZM29.9999 13.75L38.876 0.254558H37.2404L34.2313 4.81229L31.2133 0.254558H27.7953L32.5556 7.36463L28.3731 13.7455H30.0043L29.9999 13.75ZM39.5116 0.254558L30.6355 13.75H31.7022L40.6051 0.254558H39.5116ZM25.8396 12.8248H18.6746V12.2824H25.5951C25.4084 11.8403 25.244 11.38 25.1062 10.906H18.6702V8.42202H24.6306C24.5995 8.11665 24.5817 7.81129 24.5684 7.4968H18.6702V6.95443H24.5595C24.5595 6.48498 24.5861 6.02465 24.6306 5.57344H18.6657V3.10314H25.1017C25.1906 2.78866 25.2973 2.47873 25.4129 2.17336H18.6702V1.63099H25.6307C25.8396 1.14787 26.0707 0.682985 26.324 0.25H15.9233V13.7455H26.3285C26.1551 13.4492 25.9907 13.1393 25.8396 12.8202V12.8248ZM11.1007 0.254558L7.47827 5.77398L3.86024 0.254558H0.5V13.7455H3.27797V4.56162L6.61599 9.62071L12.7586 0.254558H11.1007ZM14.4521 13.75L14.4476 0.254558H13.3942L6.93601 10.1038L7.48271 10.9333L11.6697 4.56618V13.75H14.4565H14.4521Z" fill="#FCFBF8" style="fill:#FCFBF8;fill:color(display-p3 0.9882 0.9843 0.9725);fill-opacity:1;"/>
</svg>
